<svg width="411" height="731" viewBox="0 0 411 731" fill="none" xmlns="http://www.w3.org/2000/svg">
<g clip-path="url(#clip0_112_590)">
<rect width="411" height="731" fill="white"/>
<g filter="url(#filter0_d_112_590)">
<path d="M-301.418 -100.886C-301.776 -113.95 -289.711 -123.842 -276.969 -120.929L217.426 -7.92427C233.635 -4.21923 238.508 16.4979 225.649 27.0396L-254.887 420.991C-267.745 431.532 -287.105 422.692 -287.559 406.07L-301.418 -100.886Z" fill="#FEECEA"/>
</g>
<path d="M-118.771 177.368C-121.761 162.238 -107.223 149.56 -92.6402 154.58L723.063 435.406C737.608 440.413 741.291 459.28 729.697 469.39L81.2247 1034.89C69.6312 1045 51.441 1038.79 48.4591 1023.69L-118.771 177.368Z" fill="#EF4637" fill-opacity="0.7"/>
<path d="M400.85 -54.729C412.35 -64.3423 429.947 -58.3578 433.201 -43.7269L493.819 228.811C497.207 244.041 482.628 257.112 467.857 252.089L193.031 158.623C178.26 153.6 174.673 134.351 186.643 124.344L400.85 -54.729Z" fill="#FEECEA"/>
<path d="M387.85 5.27099C399.35 -4.34231 416.947 1.64221 420.201 16.2731L480.819 288.811C484.207 304.041 469.628 317.112 454.857 312.089L180.031 218.623C165.26 213.6 161.673 194.351 173.643 184.344L387.85 5.27099Z" fill="#EF4637" fill-opacity="0.6"/>
</g>
<defs>
<filter id="filter0_d_112_590" x="-318.426" y="-138.441" width="574.408" height="587" filterUnits="userSpaceOnUse" color-interpolation-filters="sRGB">
<feFlood flood-opacity="0" result="BackgroundImageFix"/>
<feColorMatrix in="SourceAlpha" type="matrix" values="0 0 0 0 0 0 0 0 0 0 0 0 0 0 0 0 0 0 127 0" result="hardAlpha"/>
<feOffset dx="3" dy="3"/>
<feGaussianBlur stdDeviation="10"/>
<feColorMatrix type="matrix" values="0 0 0 0 0 0 0 0 0 0 0 0 0 0 0 0 0 0 0.15 0"/>
<feBlend mode="normal" in2="BackgroundImageFix" result="effect1_dropShadow_112_590"/>
<feBlend mode="normal" in="SourceGraphic" in2="effect1_dropShadow_112_590" result="shape"/>
</filter>
<clipPath id="clip0_112_590">
<rect width="411" height="731" fill="white"/>
</clipPath>
</defs>
</svg>
